# AST/ASF file generated using VICON BodyLanguage
# -----------------------------------------------
:version 1.10
:name VICON
:units
  mass 1.0
  length 0.45
  angle deg
:documentation
   .ast/.asf automatically generated from VICON data using
   VICON BodyBuilder and BodyLanguage model FoxedUp or BRILLIANT.MOD
:root
   order TX TY TZ RX RY RZ
   axis XYZ
   position 0 0 0  
   orientation 0 0 0 
:bonedata
  begin
     id 1 
     name lhipjoint
     direction 0.655637 -0.713449 0.247245 
     length 2.52691 
     axis 0 0 0  XYZ
  end
  begin
     id 2 
     name lfemur
     direction 0.34202 -0.939693 0  
     length 7.59371  
     axis 0 0 20  XYZ
    dof rx ry rz
    limits (-160.0 20.0)
           (-70.0 70.0)
           (-60.0 70.0)
  end
  begin
     id 3 
     name ltibia
     direction 0.34202 -0.939693 0   
     length 7.28717   
     axis 0 0 20   XYZ
    dof rx
    limits (-10.0 170.0)
  end
  begin
     id 4 
     name lfoot
     direction 0.0886837 -0.243657 0.965798   
     length 2.2218   
     axis -90 7.62852e-016 20   XYZ
    dof rx rz
    limits (-45.0 90.0)
           (-70.0 20.0)
  end
  begin
     id 5 
     name ltoes
     direction 1.53547e-011 -4.22004e-011 1   
     length 1.11249   
     axis -90 7.62852e-016 20   XYZ
    dof rx
    limits (-90.0 20.0)
  end
  begin
     id 6 
     name rhipjoint
     direction -0.645062 -0.722004 0.250209   
     length 2.49697  
     axis 0 0 0  XYZ 
  end
  begin
     id 7 
     name rfemur
     direction -0.34202 -0.939693 0   
     length 7.58734   
     axis 0 0 -20   XYZ
    dof rx ry rz
    limits (-160.0 20.0)
           (-70.0 70.0)
           (-70.0 60.0)
  end
  begin
     id 8 
     name rtibia
     direction -0.34202 -0.939693 0   
     length 7.21538   
     axis 0 0 -20   XYZ
    dof rx
    limits (-10.0 170.0)
 end
 begin
     id 9 
     name rfoot
     direction -0.102907 -0.282735 0.953662   
     length 2.23735  
     axis -90 -7.62852e-016 -20   XYZ
    dof rx rz
    limits (-45.0 90.0)
           (-20.0 70.0)
  end
  begin
     id 10 
     name rtoes
     direction -1.5354e-011 -4.21751e-011 1   
     length 1.11569   
     axis -90 -7.62852e-016 -20   XYZ
    dof rx
    limits (-90.0 20.0)
  end
  begin
     id 11 
     name lowerback
     direction 0.00952301 0.997604 -0.0685217   
     length 2.05943   
     axis 0 0 0   XYZ
    dof rx ry rz
    limits (-20.0 45.0)
           (-30.0 30.0)
           (-30.0 30.0)
  end
  begin
     id 12 
     name upperback
     direction 0.00494399 0.999577 -0.0286701   
     length 2.06523   
     axis 0 0 0   XYZ
    dof rx ry rz
    limits (-20.0 45.0)
           (-30.0 30.0)
           (-30.0 30.0)
  end
  begin
     id 13 
     name thorax
     direction 0.000729686 0.999992 0.00388603   
     length 2.06807   
     axis 0 0 0   XYZ
    dof rx ry rz
    limits (-20.0 45.0)
           (-30.0 30.0)
           (-30.0 30.0)
  end
  begin
     id 14 
     name lowerneck
     direction 0.00452882 0.995459 0.0950816   
     length 1.57426   
     axis 0 0 0   XYZ
    dof rx ry rz
    limits (-20.0 45.0)
           (-30.0 30.0)
           (-30.0 30.0)
  end
  begin
     id 15 
     name upperneck
     direction 0.021922 0.997711 -0.0639762   
     length 1.56399   
     axis 0 0 0   XYZ
    dof rx ry rz
    limits (-20.0 45.0)
           (-30.0 30.0)
           (-30.0 30.0)
  end
  begin
     id 16
     name head
     direction 0.008024 0.999444 -0.0323691  
     length 1.6265  
     axis 0 0 0   XYZ
    dof rx ry rz
    limits (-20.0 45.0)
           (-30.0 30.0)
           (-30.0 30.0)
  end
  begin
     id 17 
     name lclavicle
     direction 0.967826 0.247107 -0.0474446  
     length 3.6598  
     axis 0 0 0   XYZ
    dof ry rz
    limits (-20.0 10.0)
           (0.0 20.0)
  end
  begin
     id 18 
     name lhumerus
     direction 1 -4.48971e-011 -2.90544e-027   
     length 4.86513   
     axis 180 -30 -90   XYZ
    dof rx ry rz
    limits (-60.0 90.0)
           (-90.0 90.0)
           (-90.0 90.0)
  end
  begin
     id 19
     name lradius
     direction 1 -4.48958e-011 1.79638e-026   
     length 3.35554   
     axis 180 -30 -90   XYZ
    dof rx
    limits (-10.0 170.0)
  end
  begin
     id 20
     name lwrist
     direction 1 -4.48952e-011 3.34345e-026   
     length 1.67777   
     axis -2.22354e-014 90 90   XYZ
    dof ry
    limits (-180.0 0.0)
 end
  begin
     id 21 
     name lhand
     direction 1 -4.49055e-011 6.6869e-026   
     length 0.661175   
     axis -4.26681e-014 90 90   XYZ
    dof rx rz
    limits (-90.0 90.0)
           (-45.0 45.0)
  end
  begin
     id 22 
     name lfingers
     direction 1 -4.48731e-011 1.33738e-025   
     length 0.533057   
     axis -8.53362e-014 90 90   XYZ
    dof rx
    limits (0.0 90.0)
  end
  begin
     id 23
     name lthumb
     direction 0.707107 -6.35005e-011 0.707107   
     length 0.765366   
     axis -90 45 2.85299e-015   XYZ
    dof rx rz
    limits (-45.0 45.0)
           (-45.0 45.0)
  end
  begin
     id 24 
     name rclavicle
     direction -0.973174 0.211421 -0.0907389   
     length 3.59444  
     axis 0 0 0   XYZ 
    dof ry rz
    limits (-10.0 20.0)
           (-20.0 0.0)
  end
  begin
     id 25 
     name rhumerus
     direction -1 -4.48964e-011 1.56311e-027  
     length 5.02649   
     axis 180 30 90   XYZ
    dof rx ry rz
    limits (-90.0 60.0)
           (-90.0 90.0)
           (-90.0 90.0)
  end
  begin
     id 26 
     name rradius
     direction -1 -4.48948e-011 2.01724e-026   
     length 3.36431   
     axis 180 30 90   XYZ
    dof rx
    limits (-10.0 170.0)
  end
  begin
     id 27 
     name rwrist
     direction -1 -4.49008e-011 3.34345e-026   
     length 1.68216   
     axis -2.22354e-014 -90 -90   XYZ
    dof ry
    limits (-180.0 0.0)
  end
  begin
     id 28
     name rhand
     direction -1 -4.49013e-011 6.6869e-026   
     length 0.730406   
     axis -4.26681e-014 -90 -90   XYZ
    dof rx rz
    limits (-90.0 90.0)
           (-45.0 45.0)
  end
  begin
     id 29
     name rfingers
     direction -1 -4.48867e-011 1.33738e-025   
     length 0.588872   
     axis -8.53362e-014 -90 -90   XYZ
    dof rx
    limits (0.0 90.0)
  end
  begin
     id 30
     name rthumb
     direction -0.707107 -6.34907e-011 0.707107   
     length 0.845506   
     axis -90 -45 -2.85299e-015   XYZ
    dof rx rz
    limits (-45.0 45.0)
           (-45.0 45.0)
  end
:hierarchy
  begin
    root lhipjoint rhipjoint lowerback
    lhipjoint lfemur
    lfemur ltibia
    ltibia lfoot
    lfoot ltoes
    rhipjoint rfemur
    rfemur rtibia
    rtibia rfoot
    rfoot rtoes
    lowerback upperback
    upperback thorax
    thorax lowerneck lclavicle rclavicle
    lowerneck upperneck
    upperneck head
    lclavicle lhumerus
    lhumerus lradius
    lradius lwrist
    lwrist lhand lthumb
    lhand lfingers
    rclavicle rhumerus
    rhumerus rradius
    rradius rwrist
    rwrist rhand rthumb
    rhand rfingers
  end

#!OML:ASF H:\Terrain\Patient Classification 1\Takeo\Monday\TakeoMonday.ASF
:FULLY-SPECIFIED
:DEGREES

211
root 9.8714 17.1278 10.0761 -4.26407 4.57341 -2.63262
lowerback 7.48651 -2.72564 3.19742
upperback 1.44295 -3.29663 2.42981
thorax -2.73622 -1.65759 1.03858
lowerneck -14.9291 2.1614 -1.49582
upperneck 0.34968 3.38236 -5.1617
head 2.80168 1.4567 -1.19369
rclavicle -2.41772e-014 1.19271e-014
rhumerus -45.7532 -16.1156 -74.8915
rradius 15.6144
rwrist -1.45251
rhand -29.2824 19.8248
rfingers 7.12502
rthumb -2.62441 -10.1389
lclavicle -2.41772e-014 1.19271e-014
lhumerus -39.1591 -3.6242 90.5866
lradius 65.546
lwrist 26.5002
lhand -19.8622 14.3913
lfingers 7.12502
lthumb 6.47282 44.2724
rfemur -18.5178 5.60583 27.5426
rtibia 41.0326
rfoot -19.2243 -9.87972
rtoes -1.01399
lfemur 0.328429 -0.444751 -17.2955
ltibia 68.4528
lfoot 12.2285 16.193
ltoes -6.8748
212
root 9.86353 17.1594 10.2869 -4.37211 4.2876 -3.05814
lowerback 7.67635 -2.5784 3.60011
upperback 1.45772 -3.05427 2.56059
thorax -2.83849 -1.54017 0.93435
lowerneck -14.8111 2.00753 -1.79076
upperneck 0.465067 3.22089 -4.94914
head 2.80449 1.38282 -1.08339
rclavicle -3.34704e-014 1.11319e-014
rhumerus -44.4457 -14.7227 -76.4519
rradius 16.6065
rwrist -3.38425
rhand -29.4698 20.0504
rfingers 7.12502
rthumb -2.80542 -9.91085
lclavicle -3.34704e-014 1.11319e-014
lhumerus -39.3485 -3.04489 90.6272
lradius 63.2424
lwrist 26.3151
lhand -19.9747 14.5831
lfingers 7.12502
lthumb 6.36425 44.4675
rfemur -17.2501 5.64984 28.223
rtibia 40.4301
rfoot -19.5041 -9.72312
rtoes -0.643469
lfemur -1.48787 -0.0993103 -16.7884
ltibia 70.0263
lfoot 8.05657 16.1611
ltoes -13.8587
213
root 9.86223 17.1926 10.4985 -4.52011 3.96008 -3.09519
lowerback 7.8555 -2.42854 3.69148
upperback 1.59955 -2.84316 2.55132
thorax -2.79349 -1.43444 0.856069
lowerneck -15.0352 1.93469 -1.9951
upperneck 0.676845 3.16671 -4.71803
head 2.90923 1.35591 -0.973335
rclavicle 1.72943e-014 -1.11319e-014
rhumerus -42.8661 -13.427 -77.9664
rradius 17.5072
rwrist -5.00515
rhand -29.5037 20.2014
rfingers 7.12502
rthumb -2.83815 -9.75944
lclavicle 1.72943e-014 -1.11319e-014
lhumerus -39.4393 -2.35063 90.5801
lradius 61.1084
lwrist 26.1968
lhand -19.9111 15.8632
lfingers 7.12502
lthumb 6.4256 45.7457
rfemur -15.9346 5.69276 28.4371
rtibia 39.7645
rfoot -19.7771 -9.43136
rtoes -0.277477
lfemur -3.18861 0.151991 -16.8125
ltibia 71.2642
lfoot 5.18298 16.1599
ltoes -13.5932
214
root 9.86043 17.2367 10.7163 -4.40966 3.79435 -2.45818
lowerback 7.76042 -2.25651 3.13573
upperback 1.75147 -2.67988 2.26798
thorax -2.56954 -1.34774 0.847261
lowerneck -15.3986 1.90131 -1.91158
upperneck 0.897366 3.11868 -4.48526
head 3.05043 1.33251 -0.912125
rclavicle 1.75924e-014 -1.51076e-014
rhumerus -41.4444 -11.9957 -79.7158
rradius 18.8862
rwrist -6.77974
rhand -29.793 20.3348
rfingers 7.12502
rthumb -3.1176 -9.62214
lclavicle 1.75924e-014 -1.51076e-014
lhumerus -39.5092 -1.97112 90.386
lradius 59.0854
lwrist 26.1319
lhand -19.8282 16.6817
lfingers 7.12502
lthumb 6.50566 46.5618
rfemur -14.7845 5.75976 27.8581
rtibia 39.0057
rfoot -20.1004 -8.99828
rtoes 0.687439
lfemur -5.14097 0.210358 -17.6873
ltibia 72.1665
lfoot 3.46379 15.8831
ltoes -11.7703
215
root 9.85403 17.2764 10.9305 -4.35012 3.60894 -2.49535
lowerback 7.76758 -2.12464 3.21936
upperback 1.8155 -2.50223 2.18284
thorax -2.51287 -1.2591 0.693393
lowerneck -15.3446 1.7998 -1.75321
upperneck 0.906015 2.95134 -4.4321
head 3.04295 1.25389 -0.935354
rclavicle 2.92213e-014 8.74653e-015
rhumerus -40.2029 -10.6832 -81.137
rradius 20.3668
rwrist -8.11051
rhand -30.1532 20.1982
rfingers 7.12502
rthumb -3.46544 -9.75337
lclavicle 2.92213e-014 8.74653e-015
lhumerus -39.7386 -1.59683 90.1701
lradius 57.1246
lwrist 25.9332
lhand -20.0456 17.5526
lfingers 7.12502
lthumb 6.29581 47.4391
rfemur -13.5606 5.91283 28.0876
rtibia 38.1981
rfoot -20.3804 -8.91997
rtoes 1.02371
lfemur -7.08665 0.386167 -17.7161
ltibia 72.8518
lfoot 2.59905 15.1894
ltoes -12.4269
216
root 9.84152 17.3073 11.1439 -4.40861 3.14062 -3.27697
lowerback 7.98089 -1.97439 3.89364
upperback 1.79973 -2.22872 2.39294
thorax -2.66089 -1.12778 0.515078
lowerneck -15.0513 1.67038 -1.74194
upperneck 0.764293 2.75917 -4.38969
head 2.93458 1.16786 -0.938833
rclavicle 1.46604e-014 -1.19271e-014
rhumerus -38.9676 -9.15276 -82.344
rradius 21.6747
rwrist -9.39393
rhand -30.4343 20.266
rfingers 7.12502
rthumb -3.73689 -9.68094
lclavicle 1.46604e-014 -1.19271e-014
lhumerus -40.1817 -0.781446 89.8829
lradius 55.3437
lwrist 25.4994
lhand -19.7066 19.8955
lfingers 7.12502
lthumb 6.62308 49.7719
rfemur -12.2639 6.24894 29.2167
rtibia 37.3559
rfoot -20.5738 -9.22519
rtoes 0.206284
lfemur -8.97256 0.805848 -16.766
ltibia 73.3644
lfoot 1.90527 14.2952
ltoes -12.3997
217
root 9.82919 17.3359 11.3578 -4.40464 2.65229 -3.61849
lowerback 8.25851 -1.82218 4.07806
upperback 1.70329 -1.98782 2.4607
thorax -2.9139 -1.01276 0.468723
lowerneck -14.8709 1.66385 -1.69084
upperneck 0.890033 2.73227 -4.22086
head 2.94133 1.16168 -0.894955
rclavicle 4.99446e-015 -2.38542e-014
rhumerus -38.0101 -7.12591 -83.7052
rradius 23.2391
rwrist -11.2076
rhand -30.596 20.4809
rfingers 7.12502
rthumb -3.89299 -9.46331
lclavicle 4.99446e-015 -2.38542e-014
lhumerus -40.7552 -0.0109283 89.4741
lradius 53.5876
lwrist 25.3558
lhand -19.3528 22.5439
lfingers 7.12502
lthumb 6.96459 52.4094
rfemur -11.0654 6.37679 29.8291
rtibia 36.516
rfoot -20.6783 -9.30918
rtoes -0.247897
lfemur -10.8716 1.10287 -16.3672
ltibia 73.6477
lfoot 0.435477 13.5824
ltoes -12.851
218
root 9.8256 17.3612 11.5701 -4.34339 2.41517 -3.44815
lowerback 8.43519 -1.72877 3.93265
upperback 1.60852 -1.86628 2.32852
thorax -3.10758 -0.954626 0.407543
lowerneck -14.9164 1.73629 -1.71014
upperneck 1.3524 2.83922 -3.96597
head 3.1071 1.21505 -0.799223
rclavicle 2.3382e-014 1.59028e-015
rhumerus -37.1295 -5.31979 -84.7818
rradius 24.929
rwrist -12.6553
rhand -30.4413 20.0187
rfingers 7.12502
rthumb -3.74363 -9.92815
lclavicle 2.3382e-014 1.59028e-015
lhumerus -41.2317 0.455243 89.1335
lradius 51.681
lwrist 25.5148
lhand -20.1962 23.2843
lfingers 7.12502
lthumb 6.15044 53.175
rfemur -9.95432 6.13091 29.7881
rtibia 35.7612
rfoot -20.5942 -9.16617
rtoes -0.616913
lfemur -12.698 1.00534 -16.727
ltibia 73.7105
lfoot -1.35131 13.1404
ltoes -14.0135
219
root 9.82902 17.3832 11.782 -4.1693 2.18774 -3.33056
lowerback 8.37656 -1.61177 4.02904
upperback 1.60226 -1.71107 2.16872
thorax -3.0855 -0.878787 0.169195
lowerneck -15.1275 1.70789 -1.75588
upperneck 1.66679 2.81682 -3.75409
head 3.25229 1.20398 -0.720975
rclavicle 1.37161e-014 -8.74653e-015
rhumerus -35.9952 -3.99573 -85.5212
rradius 26.5014
rwrist -13.6498
rhand -30.3105 19.6445
rfingers 7.12502
rthumb -3.61729 -10.3046
lclavicle 1.37161e-014 -8.74653e-015
lhumerus -41.4961 1.02855 88.7724
lradius 49.7825
lwrist 25.482
lhand -21.3462 22.5516
lfingers 7.12502
lthumb 5.04003 52.4717
rfemur -9.04298 5.88483 29.745
rtibia 35.2292
rfoot -20.6681 -8.9574
rtoes -1.30049
lfemur -14.5651 0.803903 -17.0549
ltibia 73.6059
lfoot -2.92211 12.6253
ltoes -12.2435
220
root 9.82743 17.3903 11.9965 -4.04416 1.67876 -3.70553
lowerback 8.36512 -1.46304 4.53618
upperback 1.65512 -1.47292 2.13505
thorax -3.03087 -0.763775 -0.176722
lowerneck -15.3428 1.66632 -1.66014
upperneck 1.78011 2.74333 -3.56688
head 3.33073 1.17259 -0.679819
rclavicle -1.75924e-014 -1.23246e-014
rhumerus -34.846 -2.82677 -86.2574
rradius 28.2276
rwrist -14.5027
rhand -30.5666 19.7836
rfingers 7.12502
rthumb -3.86466 -10.1611
lclavicle -1.75924e-014 -1.23246e-014
lhumerus -41.9023 1.72566 88.207
lradius 48.1288
lwrist 25.4291
lhand -21.8661 22.2374
lfingers 7.12502
lthumb 4.53808 52.1688
rfemur -8.13467 5.92454 30.2929
rtibia 34.9445
rfoot -21.199 -8.6465
rtoes -1.41565
lfemur -16.3971 0.983984 -16.6977
ltibia 73.3806
lfoot -4.10489 11.8797
ltoes -9.59414
